# xmcd CD database file
#
# Track frame offsets:
#	150
#	18359
#	69845
#	94582
#	118328
#	139546
#	187569
#	225839
#	251412
#	263360
#
# Disc length: 3591 seconds
#
# Revision: 0
# Processed by: cddbd v1.4PL0 Copyright (c) Steve Scherf et al.
# Submitted via: NeoAudio 9.9.9
#
DISCID=690e050a
DTITLE=Fifth_Member - Groove
DYEAR=2001
DGENRE=Jazz
TTITLE0=Besame!
TTITLE1=Groove
TTITLE2=Iris
TTITLE3=Daves_Funky_Feet
TTITLE4=Night_Chase
TTITLE5=This_Is_Us
TTITLE6=mM_Mm
TTITLE7=Toamna
TTITLE8=That_Dudes_Hair
TTITLE9=Take_A_Rest
EXTD=YEAR: 2001
EXTT0=
EXTT1=
EXTT2=
EXTT3=
EXTT4=
EXTT5=
EXTT6=
EXTT7=
EXTT8=
EXTT9=
PLAYORDER=
